<?xml version="1.0"?>
<svg xmlns:rdf="http://www.w3.org/1999/02/22-rdf-syntax-ns#" xmlns="http://www.w3.org/2000/svg" xmlns:cc="http://creativecommons.org/ns#" xmlns:dc="http://purl.org/dc/elements/1.1/" xmlns:svg="http://www.w3.org/2000/svg" id="svg3639" viewBox="0 0 281.6 236.55" version="1.1">
  <g id="layer1" transform="translate(-11.57 -17.73)">
    <path id="path3658" transform="translate(11.57 17.73)" d="m141.5 0c-2.47-0.016686-4.67 0.1375-6.34 0.46875-2.39 0.47394-4.57 0.81125-4.85 0.75005-0.27-0.0612-0.9 0.0425-1.4 0.25-0.5 0.2074-3.08 0.9462-5.72 1.625-2.65 0.6787-6.18 1.7399-7.88 2.375-4.44 1.6639-16.083 7.4592-18.841 9.3752-1.295 0.899-3.622 2.461-5.188 3.468-3.042 1.958-14.406 12.404-14.406 13.25 0 0.279-1.098 2.096-2.437 4.032-1.34 1.936-3.39 4.961-4.563 6.718-2.294 3.436-2.967 3.571-3.594 0.719-0.22-1.003-1.049-2.561-1.812-3.469-0.764-0.907-1.468-2.189-1.594-2.843s-1.177-1.829-2.313-2.594c-2.13-1.436-4.715-1.43-7.593 0-8.564 4.253-7.27 20.513 2.406 30.25l2.219 2.25-1.282 3.406c-0.701 1.876-1.714 5.633-2.25 8.344-1.392 7.058-1.479 7.131-4.093 3.031-5.363-8.409-7-11.211-7-11.968 0-0.444-1.716-2.532-3.813-4.657s-4.537-4.993-5.437-6.343c-1.824-2.737-7.948-8.719-8.907-8.719-1.361 0-0.403 1.479 3.563 5.625 9.765 10.206 12.159 13.01 13.969 16.375 1.052 1.957 2.301 3.957 2.781 4.437s0.872 1.202 0.875 1.594 0.963 1.913 2.125 3.375c2.081 2.617 2.685 4.281 1.531 4.281-0.323 0-2.838-1.712-5.594-3.812-2.755-2.1-6.919-5.038-9.25-6.532-2.33-1.493-6.031-3.85-8.218-5.25-2.187-1.399-4.163-2.562-4.375-2.562s-1.775-0.814-3.469-1.812c-3.044-1.795-6.031-2.378-6.031-1.188 0 0.855 3.771 3.083 4.656 2.75 1.553-0.584 14.51 7.15 23.5 14.031 3.153 2.414 5.952 4.375 6.219 4.375 0.948 0 5.054 4.214 4.812 4.938-0.45 1.35-1.372 1.156-4.718-1.063-4.058-2.691-17.601-9.536-22.969-11.593-6.545-2.509-15.903-5.633-18.5-6.188-1.3464-0.288-2.828-0.613-3.3128-0.719-0.4847-0.106-0.9062 0.22-0.9062 0.719 0 0.589 0.8679 1.052 2.4375 1.312 4.432 0.737 7.8255 1.707 11.188 3.188 1.83 0.807 4.824 1.922 6.655 2.469 3.092 0.923 16.545 7.273 23.157 10.937 3.734 2.07 3.734 2.965 0 2.406-1.582-0.236-5.056-0.555-7.719-0.718s-6.128-0.519-7.688-0.782c-5.163-0.869-26.868-0.819-28.281 0.063-0.6945 0.434-1.2497 0.924-1.25 1.094-0.00032 0.169 4.5489 0.214 10.125 0.093 11.567-0.248 35.049 0.898 38.437 1.876 2.289 0.66 2.927 1.453 1.532 1.968-0.416 0.154-4.183 0.81-8.344 1.438-7.113 1.074-20.463 4.096-24.5 5.566-0.999 0.36-3.748 1.16-6.125 1.78-5.4112 1.4-8.7188 2.77-8.7188 3.59 0 0.35 0.2191 0.63 0.4688 0.63 0.5164-0.01 9.813-2.63 12.563-3.53 0.998-0.34 3.033-0.9 4.531-1.26 1.498-0.35 4.638-1.2 6.969-1.87 10.973-3.17 22.468-5.208 23.531-4.188 1.018 0.979-0.745 2.145-5.813 3.848-6.162 2.06-15 6.17-15 6.97 0 1.22 1.361 1.34 2.625 0.21 0.725-0.64 3.347-2.01 5.844-3.03 11.964-4.89 12.125-4.91 12.125-2.34 0 1.06-0.947 1.92-4.094 3.78-2.247 1.33-4.573 2.6-5.156 2.81-0.583 0.22-1.062 0.83-1.062 1.38 0 0.84 0.339 0.79 2.281-0.38 6.401-3.86 7.536-4.37 8-3.62 0.253 0.41 0.604 3.04 0.781 5.87s0.599 5.44 0.938 5.78c0.338 0.34 1.849 0.74 3.343 0.91 2.365 0.27 3.119 0.04 5.938-1.81 1.78-1.18 6.592-3.85 10.687-5.91 8.416-4.24 8.528-4.21 13.844-0.15 1.441 1.09 2.842 2 3.125 2s1.726 1.02 3.187 2.28c1.462 1.25 3.873 3.05 5.344 4 1.472 0.95 5.684 4.65 9.374 8.22 6.16 5.95 9.44 8.56 9.44 7.53 0-0.23-2.55-3.01-5.63-6.16-6.04-6.19-17.362-15.02-24.465-19.06-2.432-1.39-4.406-2.85-4.406-3.25 0-0.77 3.059-2.03 4.875-2.03 1.883 0 19.916 9.42 20.816 10.87 0.18 0.3 1.75 1.22 3.5 2.06 4.44 2.16 10.83 6.23 12.28 7.82 2.16 2.37 6.17 3.8 4.9 1.75-0.42-0.69-11.11-8-11.68-8-0.23 0-1.29-0.67-2.38-1.5-1.09-0.84-2.15-1.5-2.34-1.5s-2.46-1.34-5.03-2.94c-2.58-1.61-7.279-4.2-10.441-5.78-3.163-1.58-5.965-3.13-6.25-3.41s0.112-0.92 0.906-1.44c1.066-0.69 2.505-0.88 5.437-0.68 5.488 0.36 7.188 1.1 7.188 3.09 0 1.15 0.23 1.5 0.88 1.25 1.2-0.46 1.81 0.66 0.93 1.72-0.39 0.47-0.52 1.15-0.31 1.5 0.53 0.85 2.12 0.8 2.12-0.06 0-1.15 2.04-2.33 2.85-1.66 0.5 0.41 0.92 0.22 1.41-0.69 0.46-0.87 1-1.18 1.68-0.9 0.56 0.22 2.52 0.81 4.35 1.28 3.6 0.92 6.91 2.22 13.84 5.47 4.32 2.02 5.49 2.24 4.63 0.84-0.61-0.98-7.09-3.89-13-5.81-8.42-2.74-7.88-2.4-7.88-5 0-2.93 1.15-4.041 7.56-7.252 12.02-6.023 14.42-6.93 18.47-7.126 18.27-0.879 21.1-0.87 22.13 0.157 0.94 0.948 0.8 1.205-2.1 3.812-1.7 1.534-3.09 3.099-3.09 3.5 0 0.447 0.92 0.75 2.41 0.75 2.04 0 2.43 0.194 2.43 1.25 0 0.977-0.27 1.176-1.22 0.875-1.58-0.502-2.32 1.234-1.06 2.504 0.75 0.74 1.19 0.8 2.28 0.22 0.98-0.53 1.52-0.55 2-0.07 1.23 1.23 2.22 0.71 2.22-1.15 0-1.214-0.3-1.816-0.91-1.816-1.17 0-1.13-0.894 0.07-2.094 1.33-1.331 2.08-1.158 2.09 0.438v1.343l1.1-1.406c0.85-1.105 1.96-1.521 5.28-1.937 2.31-0.291 6.11-0.856 8.43-1.282 2.33-0.426 6-0.781 8.16-0.781 6.95-0.001 19.06 3.278 28.75 7.815 11.39 5.33 15.96 7.66 16.62 8.47 0.43 0.5 1.1 0.93 1.5 0.93 1.52 0 15.3 10.94 18.94 15.04 2.08 2.33 3.78 4.5 3.78 4.81 0 0.3 0.58 1.05 1.28 1.69 1.18 1.06 2.21 2.71 5.85 9.53 1.3 2.43 4.72 12.39 4.53 13.18-0.05 0.22 0.17 1.32 0.5 2.44s0.59 5.72 0.59 10.22c0.01 7.72-0.11 8.51-2.06 14.31-2.56 7.63-4.38 11.04-9.87 18.38-6.85 9.13-13.05 13.96-25.32 19.68-11.38 5.32-22.79 8.11-33.75 8.26-8.66 0.11-15.52-0.35-18.9-1.26-1.33-0.35-4.88-1.24-7.88-1.96-10.67-2.59-26.3-11.41-27.31-15.44-0.2-0.79-0.67-1.66-1.06-1.91-1.18-0.73-3.78-4.44-5.5-7.87-1.32-2.64-1.62-4.01-1.6-7.75 0.02-2.5 0.22-5.55 0.44-6.78 0.61-3.45 3.77-8.94 6.69-11.63 3.07-2.83 3.37-4.25 0.97-4.25-2.27 0-7.98 6.1-10.47 11.16-3.04 6.18-3.76 16.05-1.63 22.15 0.97 2.77 2.95 5.99 6.91 11.19 1.77 2.33 3.58 4.7 4 5.25 2.01 2.68 11.36 8.19 17.69 10.44 2.66 0.95 5.25 2.09 5.75 2.5 1.09 0.9 3.65 1.37 9.69 1.84 2.49 0.2 5.1 0.74 5.81 1.19s3.04 0.9 5.15 1c9.45 0.45 13.79 0.38 17.41-0.19 2.13-0.33 5.39-0.75 7.25-0.94 1.86-0.18 5.7-1.03 8.53-1.87s5.97-1.65 6.97-1.78c2.91-0.39 6.55-1.56 8.19-2.63 0.83-0.54 3.13-1.78 5.12-2.78 5.24-2.63 8.69-4.88 12.03-7.87 1.62-1.45 3.25-2.67 3.63-2.69 0.79-0.04 6.7-7.28 9.56-11.75 5.59-8.72 7.55-13.23 10.31-23.63 1.05-3.91 1.27-6.51 1.25-13.62-0.03-12.77-2.28-21.68-8.21-32.38-2.45-4.39-6.88-10.68-9.5-13.53-0.84-0.9-2.43-2.86-3.57-4.34-2.43-3.17-12.5-12.01-18.53-16.281-7.8-5.532-7.27-4.824-8.12-10.594-1.12-7.506-4.79-20.108-6.47-22.187-0.38-0.465-0.88-1.512-1.13-2.344-1.6-5.49-8.2-17.16-14.68-26-5.15-7.016-18.57-19.706-23.76-22.438-0.83-0.438-3.62-2.368-6.21-4.312s-5.13-3.5315-5.63-3.5315c-0.49 0-1.36-0.2509-1.94-0.5625-1.18-0.6363-7.67-3.555-9.53-4.2812-5.57-2.1758-15.41-3.6687-22.81-3.7188zm1.34 3.6875c9.19-0.0555 22.45 3.4171 31.16 8.1565 6.07 3.302 11.19 6.55 11.19 7.094 0 0.282 0.27 0.5 0.59 0.5 0.59 0 3.79 2.333 9.47 6.937 4.49 3.637 11.06 10.545 13.28 13.969 1.09 1.679 2.41 3.432 2.94 3.875 0.53 0.442 0.97 1.163 0.97 1.593 0 0.431 0.21 0.858 0.47 0.969 0.5 0.216 4.78 6.548 6.03 8.907 5.17 9.766 11.65 29.988 11.65 36.374 0 3.716 0.71 4.716 5.6 7.907 2.22 1.451 2.86 2.411 1.65 2.411-0.33 0-0.59 0.4-0.59 0.9s0.26 0.91 0.59 0.91c0.34 0 0.63-0.29 0.63-0.63 0-1.4 2.92-0.41 5.59 1.88 1.58 1.35 2.88 2.68 2.88 2.94 0 0.25-0.66 0.78-1.47 1.21-1.32 0.71-1.85 0.58-5-1.18-1.94-1.09-3.74-2.33-4-2.79-0.27-0.45-0.82-0.82-1.22-0.81s-3.16-1.2-6.16-2.69c-12.45-6.149-18.73-8.78-25.43-10.651-10.71-2.988-14.67-3.541-15.19-2.188-0.45 1.177-2.76 1.898-9.53 3.063-2.94 0.506-6.53 1.455-7.97 2.094-2.33 1.03-2.68 1.057-3 0.218-0.31-0.8-0.58-0.722-1.85 0.469-0.82 0.774-1.5 1.114-1.5 0.781s0.67-1.218 1.5-2c0.84-0.782 1.54-1.808 1.54-2.25 0-0.929 5.16-1.154 5.72-0.25 0.19 0.321 1.03 0.331 2 0.032 0.91-0.284 2.78-0.796 4.18-1.157s2.98-1.067 3.47-1.562c0.8-0.798 0.78-1.19-0.19-3.344-0.6-1.338-1.48-2.751-1.96-3.156-1-0.836-3.74-5.014-4.35-6.657-0.22-0.599-0.55-2.725-0.75-4.718-0.45-4.453 0.41-6.088 4.28-7.906 4.18-1.963 3.22-3.453-1.22-1.907-8.59 2.996-9.03 14.111-0.84 21 0.97 0.818 1.75 1.905 1.75 2.407 0 0.501 0.29 1.075 0.63 1.281 1.12 0.696 0.59 1.5-0.97 1.5-1.29 0-1.48-0.206-1.16-1.219 0.21-0.674 0.15-1.155-0.13-1.094-0.27 0.061-1-0.135-1.62-0.406-0.77-0.333-1.3-0.182-1.62 0.406-0.41 0.731-3.23 0.831-17.47 0.719-9.35-0.074-17.26-0.293-17.6-0.5-0.33-0.207-0.59-1.025-0.59-1.813 0-2.613-5.42-7.534-7.47-6.781-0.39 0.145-1.73-0.287-2.97-0.969-2.19-1.202-2.31-1.229-3.5-0.156-0.67 0.609-1.22 1.662-1.22 2.313 0 1.025 0.29 1.125 2.13 0.781 3.13-0.588 5.97 0.159 8.12 2.125 1.72 1.567 1.87 2.033 1.66 4.531-0.2 2.304-0.53 2.911-1.91 3.625-0.91 0.475-1.93 0.875-2.28 0.875s-1.07 0.384-1.59 0.844c-0.53 0.46-1.64 1.031-2.47 1.281-1.49 0.446-1.52 0.426-0.44-0.781 1.41-1.582 0.76-1.959-2.44-1.375-2.69 0.493-4.72-0.294-4.72-1.875 0-0.514-1.06-0.954-3-1.188-1.66-0.201-3.14-0.276-3.24-0.187-0.11 0.089 0.27 0.858 0.84 1.719 0.71 1.085 1.57 1.562 2.78 1.562 2.66 0 2.06 1.051-0.84 1.5-1.42 0.219-3.83 0.789-5.38 1.282-1.83 0.581-4.28 0.8-6.97 0.624-5.049-0.33-19.457 1.568-23.56 3.094-2.123 0.79-2.967 1.439-2.969 2.25-0.001 0.627-0.366 1.237-0.781 1.375s-0.75-0.181-0.75-0.719c0-0.537-0.48-1.156-1.062-1.374-0.583-0.219-1.354-0.794-1.719-1.282-0.366-0.487-0.959-0.675-1.344-0.437-0.484 0.299-0.224 1.058 0.875 2.5 1.01 1.323 1.289 2.091 0.781 2.091-0.612 0-0.608 0.14-0.062 0.69s0.52 0.93-0.031 1.59c-0.569 0.69-0.507 1.03 0.312 1.63 1.385 1.01 1.328 1.48-0.156 1.09-0.704-0.18-1.219 0-1.219 0.41 0 0.39-0.258 0.52-0.594 0.31-0.834-0.51-2.631 1.38-2.25 2.38 0.198 0.51-0.741 1.25-2.656 2.09-3.572 1.56-4.066 1.58-5.469 0.31-1.493-1.35-3.078-0.65-2.625 1.16 0.248 0.99-0.085 1.87-1.156 3.03-1.542 1.66-2.274 1.98-3 1.25-0.761-0.76-0.408-2.62 0.5-2.62 1.332 0 1.104-2.08-0.375-3.41-1.216-1.1-1.267-1.55-0.969-9.31 0.322-8.361 0.937-12.382 2.938-19.472 0.625-2.216 1.125-4.672 1.125-5.469s0.241-1.715 0.531-2.031c0.441-0.482 3.015-8.284 3.375-10.25 0.519-2.837 10.213-20.011 14.375-25.438 1.277-1.664 3.31-4.294 4.5-5.875s2.544-2.875 3.031-2.875c0.488 0 0.754-0.253 0.563-0.562-0.192-0.31 0.75-1.489 2.125-2.594 1.374-1.105 3.53-2.887 4.781-3.969s2.593-1.969 2.969-1.969 0.687-0.215 0.687-0.5c0-1.305 17.869-10.95 22.249-12 0.9-0.216 2.32-0.735 3.16-1.156 2.5-1.2562 16.23-3.2752 22.4-3.3125zm-85.278 32.718c0.337 0-0.268 1.221-1.343 2.719-1.076 1.498-2.204 2.719-2.5 2.719-0.627 0-0.229-0.751 1.781-3.469 0.8-1.082 1.726-1.969 2.062-1.969zm-3.687 0.594c0.444-0.072 0.163 0.947-1.031 2.625l-1.594 2.219 1.469 1.562c1.135 1.209 1.423 2.153 1.343 4.219-0.056 1.462-0.327 3.011-0.593 3.437-0.267 0.427-0.491 1.155-0.5 1.626-0.009 0.47-0.293 0.94-0.657 1.062-0.383 0.129-1.109-1.632-1.718-4.219-1.211-5.142-0.74-8.3 1.718-11.156 0.766-0.89 1.297-1.332 1.563-1.375zm5.437 0.594c0.333 0 0.594 0.134 0.594 0.281s-0.261 0.419-0.594 0.625c-0.332 0.206-0.593 0.103-0.593-0.25s0.261-0.656 0.593-0.656zm54.438 1.25c-0.57 0.005-1.28 0.052-2.19 0.125-4.51 0.362-6.7 1.778-10.87 7.031-3.525 4.429-4.447 6.236-5.471 10.625-0.727 3.114-0.719 3.719 0.031 4.469 1.329 1.329 1.967 0.481 2.781-3.656 0.808-4.107 1.825-6.454 3.309-7.688 1.37-1.135 1.22 0.021-0.46 3.781-0.78 1.727-1.739 4.124-2.13 5.313-0.715 2.177-0.973 7.218-0.375 7.218 0.177 0 1.278-0.408 2.465-0.906 1.4-0.584 2.05-1.209 1.85-1.75-0.18-0.46-0.02-1.14 0.34-1.5 0.47-0.467 0.44-0.915-0.12-1.594-0.93-1.11-0.88-1.183 1.5-1.968 1.07-0.356 1.74-0.967 1.65-1.5-0.08-0.494 0.56-1.205 1.41-1.594s1.38-0.942 1.19-1.25-0.1-0.73 0.18-0.906c0.29-0.177 0.47-1.196 0.41-2.282-0.09-1.44 0.24-2.276 1.28-3.093 2.93-2.305 0.9-4.45-2.41-2.531-1.04 0.607-2.08 1.384-2.31 1.718-0.71 1.07-2.4 0.97-2.19-0.125 0.27-1.372 5.85-4.94 7.72-4.937 2.43 0.003 5.12 2.018 6.13 4.594 0.54 1.371 0.9 4.126 0.87 6.593-0.04 3.673-0.36 4.929-2.53 9.407-1.37 2.84-2.93 5.523-3.47 5.968-1.3 1.082-1.25 3.148 0.1 3.5 0.8 0.211 1.13 0.954 1.22 2.938 0.06 1.463-0.18 2.83-0.5 3.031-0.33 0.201-0.6 0.593-0.6 0.906 0 1.005 1.48 0.602 3.19-0.906 1.71-1.509 2.15-3.257 1.06-4.344-0.42-0.422-0.24-0.963 0.6-1.719 0.67-0.609 1.21-1.598 1.21-2.187s0.7-1.908 1.57-2.937c1.73-2.055 1.58-3.657-0.35-3.657-1.2 0-1.2-0.078-0.25-2.281 0.54-1.248 1.19-3.108 1.44-4.156s0.9-2.539 1.44-3.313c1.38-1.97 1.3-5.186-0.16-5.969-0.64-0.342-1.46-1.567-1.84-2.718s-1.7-2.944-2.91-4c-1.56-1.368-2.09-1.765-3.81-1.75zm-50.906 3c0.166 0-0.21 0.553-0.813 1.218-0.602 0.666-1.24 1.188-1.406 1.188s0.21-0.522 0.813-1.188c0.602-0.665 1.239-1.218 1.406-1.218zm112.22 0.937c-1.84-0.068-4.65 2.565-3.72 3.688 0.52 0.624 1.1 0.479 2.85-0.625 2.68-1.696 3.01-2.531 1.22-3-0.12-0.03-0.22-0.058-0.35-0.063zm-111.78 3.407c0.131-0.008 0.09 0.238-0.219 0.812-0.358 0.666-1.473 2.147-2.5 3.312l-1.874 2.126 1.218-2.188c1.028-1.827 2.983-4.039 3.375-4.062zm113.53 1.718c-0.76-0.144-2.2 0.991-2.4 2.032-0.11 0.546 0.07 0.968 0.37 0.968 0.87 0 2.79-2.364 2.31-2.844-0.07-0.075-0.17-0.135-0.28-0.156zm-71.34 3.032c0.29 0 0.39 0.21 0.15 0.593-0.2 0.333-0.84 0.599-1.4 0.594-0.88-0.008-0.91-0.088-0.13-0.594 0.6-0.383 1.09-0.593 1.38-0.593zm70.91 1.281c-0.1-0.014-0.22-0.012-0.35 0.031-0.45 0.149-0.91 0.782-1.03 1.375-0.13 0.69 0.1 0.955 0.62 0.781 0.45-0.149 0.89-0.75 1-1.344 0.11-0.517 0.03-0.802-0.24-0.843zm-62.16 1.156c-0.69 0.049-1.66 0.637-1.66 1.187 0 0.448 0.41 0.438 1.28-0.031 0.7-0.371 1.12-0.819 0.94-1-0.12-0.124-0.33-0.172-0.56-0.156zm-58.876 0.187c0.081-0.027 0.137-0.019 0.187 0.032 0.203 0.203-0.117 0.863-0.719 1.437-1.045 0.999-1.068 0.977-0.374-0.375 0.299-0.583 0.663-1.01 0.906-1.094zm7 0.376c0.333 0 0.594 0.28 0.594 0.593s-0.261 0.732-0.594 0.938c-0.333 0.205-0.594-0.075-0.594-0.594s0.261-0.937 0.594-0.937zm41.466 1.218c0.17 0.033 0.28 0.203 0.28 0.469 0 0.25-0.31 0.531-0.68 0.656-0.38 0.125-0.57-0.063-0.44-0.437 0.16-0.475 0.56-0.742 0.84-0.688zm72.69 0.594c-1.24 0-1.59 0.309-1.59 1.406 0 0.766-0.31 1.686-0.69 2.063s-0.51 1.134-0.31 1.656c0.46 1.201 1.83 1.211 2.81 0.031 0.41-0.499 1.13-0.906 1.59-0.906s0.85-0.261 0.85-0.594-0.44-0.625-0.94-0.625c-0.68 0-0.81-0.383-0.53-1.5 0.33-1.324 0.19-1.531-1.19-1.531zm-85.875 0.625c-0.986 0-1.944 2.698-1.313 3.719 0.526 0.85 1.313-0.039 1.813-2.063 0.311-1.258 0.187-1.656-0.5-1.656zm-3.125 1.406c-0.181 0.034-0.399 0.212-0.719 0.531-0.747 0.748-0.825 1.203-0.281 2.219 0.683 1.276 2.469 1.796 2.469 0.719 0-0.311-0.279-1.307-0.625-2.219-0.357-0.937-0.542-1.306-0.844-1.25zm-11.062 10.813c-0.235-0.01-0.389 0.273-0.563 0.937-0.194 0.743-0.727 1.375-1.187 1.375-0.461 0-0.844 0.407-0.844 0.906 0 1.32 0.812 1.106 2.437-0.624 1.124-1.197 1.268-1.67 0.688-2.25-0.218-0.218-0.391-0.338-0.531-0.344zm-3.844 4.718c-0.353 0-0.487 0.261-0.282 0.594 0.206 0.333 0.51 0.625 0.657 0.625s0.25-0.292 0.25-0.625-0.273-0.594-0.625-0.594zm-1.313 2.032c-0.179 0.031-0.355 0.368-0.719 1.062-0.412 0.789-0.663 1.657-0.531 1.906 0.346 0.652 1.04 0.555 1.844-0.25 0.5-0.5 0.519-1.022 0.063-1.874-0.309-0.577-0.478-0.876-0.657-0.844zm18.344 1.687c-0.284 0.036-0.543 0.168-0.781 0.407-0.477 0.476-0.466 0.919 0.094 1.593 1.096 1.321 2.468 1.173 2.468-0.281 0-1.078-0.928-1.825-1.781-1.719zm-9.531 0.75c-2.357 0.17-4.044 1.169-5.656 3.219-0.98 1.245-1.227 2.228-1 3.812 0.314 2.198 0.934 5.181 1.343 6.5 0.28 0.903 1.1 0.967 2.531 0.188 0.579-0.315 2.055-0.717 3.25-0.906 1.196-0.19 2.784-1.017 3.532-1.813 1.615-1.719 2.791-6.184 1.906-7.25-0.329-0.396-0.462-1.279-0.281-1.969 0.294-1.124-0.01-1.282-3-1.656-0.955-0.119-1.84-0.181-2.625-0.125zm-12.594 1.094c-0.041 0.013-0.067 0.036-0.094 0.063-0.154 0.153 0.149 0.711 0.688 1.25 1.094 1.094 2.125 1.294 2.125 0.406 0-0.628-2.11-1.909-2.719-1.719zm1.312 3.531c-0.87 0-0.878 0.847-0.062 3.5 0.134 0.437 0.524 0.624 0.875 0.406 0.448-0.276 0.452-0.642 0-1.187-0.355-0.427-0.489-1.208-0.281-1.75 0.246-0.642 0.066-0.969-0.532-0.969zm6.657 11.656c-0.134-0.029-0.353 0.134-0.719 0.438-0.496 0.411-0.748 0.981-0.562 1.281 0.477 0.773 1.468 0.036 1.468-1.093 0-0.385-0.054-0.596-0.187-0.626zm28.191 0.032c1.84 0.105 1.04 0.899-2.44 1.968-1.915 0.588-4.931 1.694-6.72 2.469s-4.116 1.347-5.156 1.281c-1.041-0.065-3.722-0.196-5.969-0.312-4.31-0.223-5.204-0.98-2.437-2.062 1.657-0.649 12.796-2.413 20.002-3.188 1.2-0.129 2.1-0.191 2.72-0.156zm15.87 0.406c0.5 0 0.91 0.119 0.91 0.25s-0.41 0.371-0.91 0.562c-0.5 0.192-0.91 0.104-0.91-0.218 0-0.323 0.41-0.594 0.91-0.594zm42.06 0.594c0.34 0 0.63 0.134 0.63 0.281s-0.29 0.419-0.63 0.625c-0.33 0.206-0.59 0.103-0.59-0.25s0.26-0.656 0.59-0.656zm-49.15 0.031c0.44 0 0.67 0.208 0.44 0.594-0.21 0.333-0.96 0.599-1.69 0.593-1.08-0.007-1.18-0.116-0.44-0.593 0.6-0.386 1.25-0.594 1.69-0.594zm5.03 0.656c0.11-0.03 0.2-0.015 0.25 0.031 0.18 0.187-0.42 0.822-1.34 1.407l-1.69 1.062 1.34-1.406c0.56-0.578 1.11-1.002 1.44-1.094zm-10.06 1.375c0.09-0.004 0.16 0.004 0.18 0.032 0.17 0.166-0.8 1.41-2.18 2.75-1.38 1.342-2.87 2.392-3.29 2.342-0.41-0.05-1.63-0.21-2.714-0.34-1.082-0.14-1.968-0.5-1.968-0.78 0-0.58 8.542-3.945 9.972-4.004zm4.65 1c0.32-0.058 0.56 0.143 0.38 0.688-0.13 0.395-0.58 0.837-0.97 0.968-0.44 0.148-0.57-0.129-0.35-0.718 0.22-0.55 0.62-0.879 0.94-0.938zm-4.59 2.034c0.16-0.03 0.25 0.05 0.25 0.22 0 0.33-0.41 0.93-0.91 1.34-0.5 0.42-0.9 0.49-0.9 0.16 0-0.34 0.4-0.93 0.9-1.35 0.26-0.21 0.5-0.35 0.66-0.37zm-26.064 0.37l2.719 0.16c1.498 0.08 2.711 0.42 2.687 0.75-0.066 0.93-1.586 0.89-3.593-0.06l-1.813-0.85zm-2.187 0.85c0.436-0.07 0.896 0.15 1.75 0.59 0.992 0.51 1.93 1.29 2.093 1.72 0.329 0.86-1.49 1.05-4.874 0.5l-2.032-0.34 1.5-1.41c0.713-0.67 1.127-1 1.563-1.06zm29.091 4.59c0.36 0 0.63 0.26 0.63 0.59 0 0.34-0.11 0.63-0.25 0.63-0.15 0-0.45-0.29-0.66-0.63-0.2-0.33-0.07-0.59 0.28-0.59zm139.97 4.25c1.86 0.01 7.37 5.35 6.44 6.47-0.92 1.1-1.05 1.04-4.56-1.81-3.36-2.73-3.81-3.66-2.19-4.57 0.09-0.05 0.19-0.09 0.31-0.09zm7.6 7.28c2.03 0.05 6.81 5.22 5.78 6.25-0.82 0.82-1.86 0.28-4.32-2.22-2.72-2.77-3.18-4.07-1.46-4.03zm7.59 7.63c0.8 0.07 1.62 0.84 1.62 1.72 0 0.41 0.59 1.14 1.32 1.62 0.86 0.57 1.19 1.24 0.93 1.91-0.6 1.58-1.27 1.22-3.43-1.79-1.58-2.19-1.84-2.88-1.19-3.28 0.23-0.14 0.48-0.21 0.75-0.18zm5.28 7.46c0.06 0 0.1 0 0.13 0.04 0.09 0.14 1.09 1.6 2.21 3.22 1.64 2.36 1.87 3.04 1.19 3.46-1.34 0.85-1.67 0.68-2.62-1.4-0.5-1.08-1.24-2.46-1.66-3.03-0.59-0.82-0.6-1.21-0.03-1.79 0.3-0.3 0.61-0.48 0.78-0.5zm4.09 8.47c0.69 0 1.35 0.75 1.82 2.03 0.41 1.16 0.54 2.6 0.28 3.32-0.43 1.15-0.57 1.06-1.82-1.1-1.64-2.85-1.74-4.25-0.28-4.25zm3.16 7.88c0.85 0 1.21 0.42 1.22 1.37 0 0.75 0.17 1.97 0.37 2.72 0.29 1.08 0.11 1.35-0.84 1.35-0.87 0-1.32-0.52-1.59-1.88-0.6-2.98-0.45-3.56 0.84-3.56zm1.16 7.25c0.78 0 1.29 0.59 1.56 1.81 0.49 2.22-0.4 4.14-1.34 2.94-0.35-0.44-0.77-1.7-0.97-2.78-0.32-1.66-0.22-1.97 0.75-1.97zm0.96 7.28c1.1 0 1.59 2.62 1.13 6.06-0.41 3.12-0.81 3.58-1.97 2.19-0.92-1.11-0.19-8.25 0.84-8.25zm-1.12 11c0.16-0.05 0.33 0.23 0.66 0.84 0.37 0.7 0.53 1.88 0.34 2.6s-0.57 1.28-0.88 1.28c-0.93 0-1.27-1.67-0.68-3.44 0.27-0.82 0.4-1.23 0.56-1.28zm-0.84 6.16c0.04-0.02 0.06-0.02 0.09 0 0.78 0.28 0.56 2.71-0.34 3.81-0.71 0.85-1.72 1.1-1.72 0.41 0-1.2 1.35-4.03 1.97-4.22zm-2.07 6.43c1 0 1.1 1.41 0.22 3.16-0.97 1.95-1.08 2.02-1.56 0.78-0.42-1.1 0.54-3.94 1.34-3.94zm-2.21 5.47c0.26 0.02 0.54 0.18 0.74 0.5 0.42 0.68-1.37 4.32-2.12 4.32-0.31 0-0.56 0.42-0.56 0.93 0 0.52-1.14 2.58-2.53 4.57-2.77 3.92-3.53 4.37-3.53 2.12 0-0.94 0.44-1.63 1.21-1.88 0.67-0.21 1.38-1.1 1.6-2 0.22-0.89 1.14-2.69 2.03-4.03 0.89-1.33 1.79-2.91 2-3.5 0.26-0.71 0.71-1.06 1.16-1.03zm-10.66 14.88c0.21 0.01 0.39 0.12 0.62 0.31 1.1 0.91 1.05 2.14-0.12 2.59-2.28 0.88-3.32-0.36-1.75-2.09 0.5-0.56 0.9-0.83 1.25-0.81zm-3.78 4.75c1.65-0.01 1.33 1.58-1.38 3.5-1.29 0.91-2.52 1.69-2.72 1.69-0.19 0-0.34-0.86-0.34-1.88 0-1.54 0.33-1.97 2.12-2.72 0.98-0.41 1.77-0.59 2.32-0.59zm-7.78 5.87c0.25 0.03 0.31 0.31 0.31 0.78 0 1.04-3.13 3.35-4.5 3.35-0.53 0-0.94 0.29-0.94 0.62 0 0.34-0.29 0.6-0.62 0.6-1.27 0-0.5-1.02 2.34-3.19 2.03-1.55 2.98-2.2 3.41-2.16zm-9.35 5.47c0.43 0.02 0.57 0.23 0.57 0.69 0 0.6-0.77 1.11-2.16 1.37-1.19 0.23-2.33 0.77-2.5 1.22-0.61 1.59-2.08 0.96-1.88-0.81 0.15-1.29 0.51-1.69 1.69-1.75 0.83-0.04 2.27-0.29 3.19-0.53 0.48-0.13 0.84-0.2 1.09-0.19zm-12.69 3.81c0.33-0.03 0.57 0.07 0.57 0.32 0 0.32-0.41 0.59-0.91 0.59s-0.94-0.09-0.94-0.22 0.44-0.4 0.94-0.59c0.13-0.05 0.24-0.08 0.34-0.1zm0.57 2.13c0.33 0 0.59 0.26 0.59 0.59 0 0.34-0.26 0.63-0.59 0.63-0.34 0-0.63-0.29-0.63-0.63 0-0.33 0.29-0.59 0.63-0.59zm-45.25 0.65c0.91-0.02 1.65 0.23 1.65 0.57 0 0.71-0.47 0.71-2.12 0-1.07-0.46-1.01-0.53 0.47-0.57zm21.09 1.76c0.33 0 0.46 0.29 0.25 0.62-0.2 0.33-0.67 0.59-1 0.59s-0.42-0.26-0.22-0.59c0.21-0.33 0.64-0.62 0.97-0.62zm4.78 0c0.34 0 0.6 0.29 0.6 0.62s-0.26 0.59-0.6 0.59c-0.33 0-0.62-0.26-0.62-0.59s0.29-0.62 0.62-0.62zm3.03 0c0.34 0 0.6 0.29 0.6 0.62s-0.26 0.59-0.6 0.59c-0.33 0-0.62-0.26-0.62-0.59s0.29-0.62 0.62-0.62z"/>
  </g>
  <metadata>
    <rdf:RDF>
      <cc:Work>
        <dc:format>image/svg+xml</dc:format>
        <dc:type rdf:resource="http://purl.org/dc/dcmitype/StillImage"/>
        <cc:license rdf:resource="http://creativecommons.org/licenses/publicdomain/"/>
        <dc:publisher>
          <cc:Agent rdf:about="http://openclipart.org/">
            <dc:title>Openclipart</dc:title>
          </cc:Agent>
        </dc:publisher>
        <dc:title>Vintage mouse</dc:title>
        <dc:date>2013-08-07T22:40:10</dc:date>
        <dc:description>Vintage mouse traced from http://thegraphicsfairy.com/vintage-kids-printable-draw-some-mice/</dc:description>
        <dc:source>http://openclipart.org/detail/181665/vintage-mouse-by-liftarn-181665</dc:source>
        <dc:creator>
          <cc:Agent>
            <dc:title>liftarn</dc:title>
          </cc:Agent>
        </dc:creator>
        <dc:subject>
          <rdf:Bag>
            <rdf:li>mouse</rdf:li>
            <rdf:li>vintage</rdf:li>
          </rdf:Bag>
        </dc:subject>
      </cc:Work>
      <cc:License rdf:about="http://creativecommons.org/licenses/publicdomain/">
        <cc:permits rdf:resource="http://creativecommons.org/ns#Reproduction"/>
        <cc:permits rdf:resource="http://creativecommons.org/ns#Distribution"/>
        <cc:permits rdf:resource="http://creativecommons.org/ns#DerivativeWorks"/>
      </cc:License>
    </rdf:RDF>
  </metadata>
</svg>
